<svg id="eWPUB09Ri6C1" xmlns="http://www.w3.org/2000/svg" xmlns:xlink="http://www.w3.org/1999/xlink" viewBox="0 0 300 300" shape-rendering="geometricPrecision" text-rendering="geometricPrecision" style="background-color:transparent"><path d="M70.513987,270.184217L149.317722,62.770071l80.850575,207.414146" fill="none" stroke="#252627" stroke-width="50" stroke-linecap="round" stroke-linejoin="round"/><path d="M101.216739,199.909029h97.566522" fill="none" stroke="#252627" stroke-width="50" stroke-linecap="round" stroke-linejoin="round"/><path d="M107.995006,192.413814c24.092603,0,59.924537,0,83.805208,0-8.109262-20.752239-26.502522-69.505161-42.482492-108.976362-14.510669,34.459041-31.135748,77.633526-41.322716,108.976362Z" transform="translate(0-.025336)" fill="#fff" stroke-width="0.1"/><path d="M143.305611,234.023197c3.198727,6.822833,19.316624,1.364566,40.247545-3.45693C317.659284,172.498001,283.876377,-10.872377,43.904928,53.218102c165.737122-12.244549,165.737118,62.64401,172.53079,87.888734c0,44.703604-26.360443,67.289191-50.409121,79.917638-10.088489,5.297669-24.248449,9.541793-22.720986,12.998723Z" transform="matrix(1.202508 0 0 1.202502-21.927942-31.780953)" fill="#3142e8" stroke-width="0.6" stroke-linecap="round" stroke-linejoin="round"/></svg>
